<svg width="67" height="17" viewBox="0 0 67 17" fill="none" xmlns="http://www.w3.org/2000/svg">
<g clip-path="url(#paint0_angular_0_36_clip_path)" data-figma-skip-parse="true"><g transform="matrix(0.0335 0 0 0.0085 33.5 8.5)"><foreignObject x="-1058.82" y="-1058.82" width="2117.65" height="2117.65"><div xmlns="http://www.w3.org/1999/xhtml" style="background:conic-gradient(from 90deg,rgba(32, 199, 245, 1) 0deg,rgba(1, 134, 251, 1) 360deg);height:100%;width:100%;opacity:1"></div></foreignObject></g></g><path d="M0 10C0 4.47715 4.47715 0 10 0H58.5C63.1944 0 67 3.80558 67 8.5C67 13.1944 63.1944 17 58.5 17H2C0.895429 17 0 16.1046 0 15V10Z" data-figma-gradient-fill="{&#34;type&#34;:&#34;GRADIENT_ANGULAR&#34;,&#34;stops&#34;:[{&#34;color&#34;:{&#34;r&#34;:0.12798672914505005,&#34;g&#34;:0.78164172172546387,&#34;b&#34;:0.96243989467620850,&#34;a&#34;:1.0},&#34;position&#34;:0.0},{&#34;color&#34;:{&#34;r&#34;:0.0047070654109120369,&#34;g&#34;:0.52847868204116821,&#34;b&#34;:0.98677885532379150,&#34;a&#34;:1.0},&#34;position&#34;:1.0}],&#34;transform&#34;:{&#34;m00&#34;:67.0,&#34;m01&#34;:0.0,&#34;m02&#34;:0.0,&#34;m10&#34;:0.0,&#34;m11&#34;:17.0,&#34;m12&#34;:0.0},&#34;opacity&#34;:1.0,&#34;blendMode&#34;:&#34;NORMAL&#34;,&#34;stopsVar&#34;:[{&#34;color&#34;:{&#34;r&#34;:0.12798672914505005,&#34;g&#34;:0.78164172172546387,&#34;b&#34;:0.96243989467620850,&#34;a&#34;:1.0},&#34;position&#34;:0.0},{&#34;color&#34;:{&#34;r&#34;:0.0047070654109120369,&#34;g&#34;:0.52847868204116821,&#34;b&#34;:0.98677885532379150,&#34;a&#34;:1.0},&#34;position&#34;:1.0}],&#34;visible&#34;:true}"/>
<path d="M7.13428 11.1059L8.48242 5.99258C8.84766 4.59967 10.0365 3.90143 12.0488 3.89785H14.9438C15.0763 3.89785 15.1855 3.94798 15.2715 4.04824C15.361 4.1485 15.4058 4.26488 15.4058 4.39736V11.1059C15.4058 11.2455 15.3556 11.3637 15.2554 11.4604C15.1551 11.5535 15.0352 11.6 14.8955 11.6H13.8857C13.7389 11.6 13.6172 11.5535 13.5205 11.4604C13.4274 11.3637 13.3809 11.2419 13.3809 11.0951V9.7416H9.56201L9.20215 11.0951C9.16634 11.2419 9.08577 11.3637 8.96045 11.4604C8.83512 11.5535 8.70264 11.6 8.56299 11.6H7.50488C7.36523 11.6 7.26497 11.5606 7.2041 11.4818C7.14323 11.3995 7.11279 11.3279 7.11279 11.267C7.11637 11.2061 7.12354 11.1524 7.13428 11.1059ZM9.95947 8.22158H13.3809V5.41787H11.8501C11.5063 5.41787 11.2056 5.51634 10.9478 5.71328C10.6935 5.90664 10.5216 6.16803 10.4321 6.49746L9.95947 8.22158ZM16.9419 11.1059V4.40811C16.9419 4.26846 16.992 4.1485 17.0923 4.04824C17.1925 3.94798 17.3125 3.89785 17.4521 3.89785H18.4512C18.598 3.89785 18.7197 3.94798 18.8164 4.04824C18.9167 4.1485 18.9668 4.26846 18.9668 4.40811V11.0951C18.9668 11.2348 18.9149 11.3547 18.811 11.455C18.7108 11.5517 18.5908 11.6 18.4512 11.6H17.4521C17.3125 11.6 17.1925 11.5535 17.0923 11.4604C16.992 11.3637 16.9419 11.2455 16.9419 11.1059ZM23.731 11.1059L25.0791 5.99258C25.4443 4.59967 26.6331 3.90143 28.6455 3.89785H31.5405C31.673 3.89785 31.7822 3.94798 31.8682 4.04824C31.9577 4.1485 32.0024 4.26488 32.0024 4.39736V11.1059C32.0024 11.2455 31.9523 11.3637 31.8521 11.4604C31.7518 11.5535 31.6318 11.6 31.4922 11.6H30.4824C30.3356 11.6 30.2139 11.5535 30.1172 11.4604C30.0241 11.3637 29.9775 11.2419 29.9775 11.0951V9.7416H26.1587L25.7988 11.0951C25.763 11.2419 25.6825 11.3637 25.5571 11.4604C25.4318 11.5535 25.2993 11.6 25.1597 11.6H24.1016C23.9619 11.6 23.8617 11.5606 23.8008 11.4818C23.7399 11.3995 23.7095 11.3279 23.7095 11.267C23.7131 11.2061 23.7202 11.1524 23.731 11.1059ZM26.5562 8.22158H29.9775V5.41787H28.4468C28.103 5.41787 27.8022 5.51634 27.5444 5.71328C27.2902 5.90664 27.1183 6.16803 27.0288 6.49746L26.5562 8.22158ZM35.8159 11.1488C35.0031 11.1488 34.346 10.9035 33.8447 10.413C33.347 9.92243 33.0981 9.24209 33.0981 8.37197C33.0981 7.50186 33.3828 6.82331 33.9521 6.33633C34.5215 5.84935 35.3379 5.60586 36.4014 5.60586C36.9206 5.60586 37.4595 5.66494 38.0181 5.78311C38.5767 5.89769 38.9974 6.03913 39.2803 6.20742V11.1811C39.2803 11.9796 39.0171 12.5686 38.4907 12.9481C37.9644 13.3313 37.2249 13.5229 36.2725 13.5229C35.3236 13.5229 34.5913 13.4029 34.0757 13.163C33.5636 12.9267 33.3076 12.5346 33.3076 11.9867C33.3076 11.89 33.3381 11.8095 33.3989 11.745C33.4634 11.6841 33.5439 11.6537 33.6406 11.6537H34.4409C34.6987 11.6537 34.9046 11.7486 35.0586 11.9384C35.2555 12.1819 35.6047 12.3036 36.106 12.3036C36.6108 12.3036 36.9564 12.2213 37.1426 12.0565C37.3288 11.8918 37.4219 11.6 37.4219 11.1811V10.9286C36.849 11.0754 36.3136 11.1488 35.8159 11.1488ZM36.2886 6.90566C35.4399 6.90208 35.0156 7.39264 35.0156 8.37734C35.0156 9.35846 35.4292 9.84902 36.2563 9.84902C36.6001 9.84902 36.9886 9.79531 37.4219 9.68789V7.02383C37.1139 6.94147 36.7362 6.90208 36.2886 6.90566ZM41.1011 10.9232C40.5496 10.4005 40.2739 9.6485 40.2739 8.66738C40.2739 7.68268 40.5514 6.92715 41.1064 6.40078C41.6615 5.87083 42.4313 5.60586 43.416 5.60586C44.4007 5.60586 45.1688 5.86367 45.7202 6.3793C46.2716 6.89134 46.5474 7.62718 46.5474 8.58682V8.89297C46.5474 8.98965 46.5151 9.07022 46.4507 9.13467C46.3898 9.19554 46.311 9.22598 46.2144 9.22598H42.1699C42.2057 9.66641 42.3311 9.98688 42.5459 10.1874C42.7643 10.3879 43.1117 10.4882 43.5879 10.4882C44.0641 10.4882 44.39 10.3808 44.5654 10.1659C44.7409 9.95107 44.9575 9.84186 45.2153 9.83828H46.0156C46.1123 9.83828 46.1911 9.87051 46.252 9.93496C46.3164 9.99583 46.3486 10.0746 46.3486 10.1713C46.3486 11.199 45.3693 11.711 43.4106 11.7074C42.4224 11.7074 41.6525 11.446 41.1011 10.9232ZM42.1592 8.09268H44.6567C44.6209 7.24762 44.2056 6.8251 43.4106 6.8251C42.6193 6.8251 42.2021 7.24762 42.1592 8.09268ZM47.5356 11.2724V6.04629C47.5356 5.94961 47.5661 5.87083 47.627 5.80996C47.6914 5.74551 47.7702 5.71328 47.8633 5.71328H49.0664C49.1595 5.71328 49.2365 5.74551 49.2974 5.80996C49.3618 5.87083 49.394 5.94961 49.394 6.04629V6.38467C50.0099 5.86546 50.6652 5.60586 51.3599 5.60586C52.0581 5.60586 52.6257 5.81891 53.0625 6.24502C53.4993 6.66755 53.7178 7.31566 53.7178 8.18936V11.2724C53.7178 11.3655 53.6855 11.4442 53.6211 11.5087C53.5602 11.5696 53.4814 11.6 53.3848 11.6H52.187C52.0939 11.6 52.0151 11.5696 51.9507 11.5087C51.8898 11.4442 51.8594 11.3655 51.8594 11.2724V8.18936C51.8594 7.33356 51.5174 6.90566 50.8335 6.90566C50.3859 6.90566 49.9061 7.16169 49.394 7.67373V11.2724C49.394 11.3655 49.3618 11.4442 49.2974 11.5087C49.2365 11.5696 49.1595 11.6 49.0664 11.6H47.8633C47.7702 11.6 47.6914 11.5696 47.627 11.5087C47.5661 11.4442 47.5356 11.3655 47.5356 11.2724ZM57.8481 10.4345L58.584 10.37H58.7827C58.8794 10.37 58.9582 10.4005 59.019 10.4613C59.0835 10.5222 59.1157 10.601 59.1157 10.6977V11.2724C59.1157 11.3511 59.0835 11.4228 59.019 11.4872C58.9582 11.5481 58.8794 11.5857 58.7827 11.6C58.4175 11.6716 57.9412 11.7074 57.354 11.7074C55.8143 11.7074 55.0444 10.9018 55.0444 9.29043V4.23086C55.0444 4.13418 55.0749 4.0554 55.1357 3.99453C55.2002 3.93008 55.279 3.89785 55.3721 3.89785H56.5752C56.6683 3.89785 56.7453 3.93008 56.8062 3.99453C56.8706 4.0554 56.9028 4.13418 56.9028 4.23086V6.02481H58.4014C58.4945 6.02481 58.5715 6.05524 58.6323 6.11611C58.6968 6.17699 58.729 6.25576 58.729 6.35244V6.9916C58.729 7.08828 58.6968 7.16706 58.6323 7.22793C58.5715 7.2888 58.4945 7.31924 58.4014 7.31924H56.9028V9.29043C56.9028 9.65566 56.9888 9.93854 57.1606 10.1391C57.3325 10.336 57.5617 10.4345 57.8481 10.4345Z" fill="white"/>
<defs>
<clipPath id="paint0_angular_0_36_clip_path"><path d="M0 10C0 4.47715 4.47715 0 10 0H58.5C63.1944 0 67 3.80558 67 8.5C67 13.1944 63.1944 17 58.5 17H2C0.895429 17 0 16.1046 0 15V10Z"/></clipPath></defs>
</svg>
